<?xml version="1.0" encoding="UTF-8"?>
<svg xmlns="http://www.w3.org/2000/svg" viewBox="0 0 800 400">
  <defs>
    <style>
      .axis { stroke: #333; stroke-width: 1; }
      .grid { stroke: #222; stroke-width: 0.5; }
      .label { font-family: 'Helvetica Neue', sans-serif; font-size: 10px; fill: #666; }
      .title { font-family: 'Helvetica Neue', sans-serif; font-size: 14px; fill: #333; font-weight: bold; }
      .presence-line { fill: none; stroke: #0099cc; stroke-width: 2; }
      .presence-dot { fill: #0099cc; }
      .frag-line { fill: none; stroke: #cc3333; stroke-width: 2; stroke-dasharray: 5,3; }
      .frag-dot { fill: #cc3333; }
      .unified { fill: #22cc66; }
      .partial { fill: #ccaa22; }
      .fragmented { fill: #cc3333; }
    </style>
  </defs>
  
  <text x="400" y="25" class="title">Self Presence Over Time: 2022-12 to 2025-12</text>
  
  <!-- Y-axis -->
  <line x1="60" y1="50" x2="60" y2="340" class="axis"/>
  <text x="15" y="195" class="label" transform="rotate(-90, 15, 195)">Presence / Fragmentation</text>
  
  <!-- X-axis -->
  <line x1="60" y1="340" x2="720" y2="340" class="axis"/>
  
  <!-- Grid lines -->
  <line x1="70" y1="340" x2="720" y2="340" class="grid"/>
  <line x1="70" y1="267.5" x2="720" y2="267.5" class="grid"/>
  <line x1="70" y1="195.0" x2="720" y2="195.0" class="grid"/>
  <line x1="70" y1="122.5" x2="720" y2="122.5" class="grid"/>
  <line x1="70" y1="50.0" x2="720" y2="50.0" class="grid"/>
  
  <!-- Data -->
  <polyline points="70.0,50.0 88.05555555555556,50.0 106.11111111111111,68.43930635838151 124.16666666666667,127.44318181818183 142.22222222222223,50.0 160.27777777777777,53.27683615819209 178.33333333333334,58.01104972375692 196.3888888888889,51.58469945355191 214.44444444444446,50.0 232.5,53.08510638297871 250.55555555555557,104.5698924731183 268.61111111111114,50.0 286.6666666666667,50.0 304.72222222222223,50.0 322.7777777777778,336.4848484848485 340.83333333333337,122.93413173652694 358.8888888888889,183.84615384615384 376.94444444444446,51.6763005780347 395.0,51.61111111111111 413.0555555555556,58.01104972375692 431.11111111111114,50.0 449.1666666666667,51.55080213903744 467.2222222222223,244.34554973821992 485.2777777777778,54.53125 503.33333333333337,50.0 521.3888888888889,331.16751269035535 539.4444444444445,63.11557788944723 557.5,51.457286432160814 575.5555555555557,50.0 593.6111111111112,62.985074626865675 611.6666666666667,50.0 629.7222222222223,259.6039603960396 647.7777777777778,100.92682926829269 665.8333333333334,265.42857142857144 683.8888888888889,91.6267942583732 701.9444444444445,337.2641509433962 720.0,50.0" class="presence-line"/>
  <circle cx="70.0" cy="50.0" r="4" class="presence-dot"/>
  <circle cx="88.05555555555556" cy="50.0" r="4" class="presence-dot"/>
  <circle cx="106.11111111111111" cy="68.43930635838151" r="4" class="presence-dot"/>
  <circle cx="124.16666666666667" cy="127.44318181818183" r="4" class="presence-dot"/>
  <circle cx="142.22222222222223" cy="50.0" r="4" class="presence-dot"/>
  <circle cx="160.27777777777777" cy="53.27683615819209" r="4" class="presence-dot"/>
  <circle cx="178.33333333333334" cy="58.01104972375692" r="4" class="presence-dot"/>
  <circle cx="196.3888888888889" cy="51.58469945355191" r="4" class="presence-dot"/>
  <circle cx="214.44444444444446" cy="50.0" r="4" class="presence-dot"/>
  <circle cx="232.5" cy="53.08510638297871" r="4" class="presence-dot"/>
  <circle cx="250.55555555555557" cy="104.5698924731183" r="4" class="presence-dot"/>
  <circle cx="268.61111111111114" cy="50.0" r="4" class="presence-dot"/>
  <circle cx="286.6666666666667" cy="50.0" r="4" class="presence-dot"/>
  <circle cx="304.72222222222223" cy="50.0" r="4" class="presence-dot"/>
  <circle cx="322.7777777777778" cy="336.4848484848485" r="4" class="presence-dot"/>
  <circle cx="340.83333333333337" cy="122.93413173652694" r="4" class="presence-dot"/>
  <circle cx="358.8888888888889" cy="183.84615384615384" r="4" class="presence-dot"/>
  <circle cx="376.94444444444446" cy="51.6763005780347" r="4" class="presence-dot"/>
  <circle cx="395.0" cy="51.61111111111111" r="4" class="presence-dot"/>
  <circle cx="413.0555555555556" cy="58.01104972375692" r="4" class="presence-dot"/>
  <circle cx="431.11111111111114" cy="50.0" r="4" class="presence-dot"/>
  <circle cx="449.1666666666667" cy="51.55080213903744" r="4" class="presence-dot"/>
  <circle cx="467.2222222222223" cy="244.34554973821992" r="4" class="presence-dot"/>
  <circle cx="485.2777777777778" cy="54.53125" r="4" class="presence-dot"/>
  <circle cx="503.33333333333337" cy="50.0" r="4" class="presence-dot"/>
  <circle cx="521.3888888888889" cy="331.16751269035535" r="4" class="presence-dot"/>
  <circle cx="539.4444444444445" cy="63.11557788944723" r="4" class="presence-dot"/>
  <circle cx="557.5" cy="51.457286432160814" r="4" class="presence-dot"/>
  <circle cx="575.5555555555557" cy="50.0" r="4" class="presence-dot"/>
  <circle cx="593.6111111111112" cy="62.985074626865675" r="4" class="presence-dot"/>
  <circle cx="611.6666666666667" cy="50.0" r="4" class="presence-dot"/>
  <circle cx="629.7222222222223" cy="259.6039603960396" r="4" class="presence-dot"/>
  <circle cx="647.7777777777778" cy="100.92682926829269" r="4" class="presence-dot"/>
  <circle cx="665.8333333333334" cy="265.42857142857144" r="4" class="presence-dot"/>
  <circle cx="683.8888888888889" cy="91.6267942583732" r="4" class="presence-dot"/>
  <circle cx="701.9444444444445" cy="337.2641509433962" r="4" class="presence-dot"/>
  <circle cx="720.0" cy="50.0" r="4" class="presence-dot"/>
  <polyline points="70.0,338.2530120481928 88.05555555555556,336.9148936170213 106.11111111111111,328.2658959537572 124.16666666666667,292.2159090909091 142.22222222222223,338.3707865168539 160.27777777777777,335.08474576271186 178.33333333333334,331.9889502762431 196.3888888888889,336.8306010928962 214.44444444444446,338.43243243243245 232.5,335.3723404255319 250.55555555555557,291.6666666666667 268.61111111111114,330.0 286.6666666666667,336.9791666666667 304.72222222222223,338.1528662420382 322.7777777777778,76.36363636363637 340.83333333333337,286.16766467065867 358.8888888888889,261.06508875739644 376.94444444444446,336.64739884393066 395.0,336.77777777777777 413.0555555555556,335.1933701657459 431.11111111111114,338.42391304347825 449.1666666666667,336.8983957219251 467.2222222222223,236.7539267015707 485.2777777777778,335.46875 503.33333333333337,338.50515463917526 521.3888888888889,85.32994923857869 539.4444444444445,328.3417085427136 557.5,337.0854271356784 575.5555555555557,338.55 593.6111111111112,329.9004975124378 611.6666666666667,338.5353535353535 629.7222222222223,215.09900990099013 647.7777777777778,306.0487804878049 665.8333333333334,230.9047619047619 683.8888888888889,312.2488038277512 701.9444444444445,60.94339622641509 720.0,338.6511627906977" class="frag-line"/>
  <circle cx="70.0" cy="338.2530120481928" r="4" class="frag-dot"/>
  <circle cx="88.05555555555556" cy="336.9148936170213" r="4" class="frag-dot"/>
  <circle cx="106.11111111111111" cy="328.2658959537572" r="4" class="frag-dot"/>
  <circle cx="124.16666666666667" cy="292.2159090909091" r="4" class="frag-dot"/>
  <circle cx="142.22222222222223" cy="338.3707865168539" r="4" class="frag-dot"/>
  <circle cx="160.27777777777777" cy="335.08474576271186" r="4" class="frag-dot"/>
  <circle cx="178.33333333333334" cy="331.9889502762431" r="4" class="frag-dot"/>
  <circle cx="196.3888888888889" cy="336.8306010928962" r="4" class="frag-dot"/>
  <circle cx="214.44444444444446" cy="338.43243243243245" r="4" class="frag-dot"/>
  <circle cx="232.5" cy="335.3723404255319" r="4" class="frag-dot"/>
  <circle cx="250.55555555555557" cy="291.6666666666667" r="4" class="frag-dot"/>
  <circle cx="268.61111111111114" cy="330.0" r="4" class="frag-dot"/>
  <circle cx="286.6666666666667" cy="336.9791666666667" r="4" class="frag-dot"/>
  <circle cx="304.72222222222223" cy="338.1528662420382" r="4" class="frag-dot"/>
  <circle cx="322.7777777777778" cy="76.36363636363637" r="4" class="frag-dot"/>
  <circle cx="340.83333333333337" cy="286.16766467065867" r="4" class="frag-dot"/>
  <circle cx="358.8888888888889" cy="261.06508875739644" r="4" class="frag-dot"/>
  <circle cx="376.94444444444446" cy="336.64739884393066" r="4" class="frag-dot"/>
  <circle cx="395.0" cy="336.77777777777777" r="4" class="frag-dot"/>
  <circle cx="413.0555555555556" cy="335.1933701657459" r="4" class="frag-dot"/>
  <circle cx="431.11111111111114" cy="338.42391304347825" r="4" class="frag-dot"/>
  <circle cx="449.1666666666667" cy="336.8983957219251" r="4" class="frag-dot"/>
  <circle cx="467.2222222222223" cy="236.7539267015707" r="4" class="frag-dot"/>
  <circle cx="485.2777777777778" cy="335.46875" r="4" class="frag-dot"/>
  <circle cx="503.33333333333337" cy="338.50515463917526" r="4" class="frag-dot"/>
  <circle cx="521.3888888888889" cy="85.32994923857869" r="4" class="frag-dot"/>
  <circle cx="539.4444444444445" cy="328.3417085427136" r="4" class="frag-dot"/>
  <circle cx="557.5" cy="337.0854271356784" r="4" class="frag-dot"/>
  <circle cx="575.5555555555557" cy="338.55" r="4" class="frag-dot"/>
  <circle cx="593.6111111111112" cy="329.9004975124378" r="4" class="frag-dot"/>
  <circle cx="611.6666666666667" cy="338.5353535353535" r="4" class="frag-dot"/>
  <circle cx="629.7222222222223" cy="215.09900990099013" r="4" class="frag-dot"/>
  <circle cx="647.7777777777778" cy="306.0487804878049" r="4" class="frag-dot"/>
  <circle cx="665.8333333333334" cy="230.9047619047619" r="4" class="frag-dot"/>
  <circle cx="683.8888888888889" cy="312.2488038277512" r="4" class="frag-dot"/>
  <circle cx="701.9444444444445" cy="60.94339622641509" r="4" class="frag-dot"/>
  <circle cx="720.0" cy="338.6511627906977" r="4" class="frag-dot"/>
  <rect x="62.0" y="345" width="16" height="8" class="unified"/>
  <rect x="80.05555555555556" y="345" width="16" height="8" class="unified"/>
  <rect x="98.11111111111111" y="345" width="16" height="8" class="unified"/>
  <rect x="116.16666666666667" y="345" width="16" height="8" class="unified"/>
  <rect x="134.22222222222223" y="345" width="16" height="8" class="unified"/>
  <rect x="152.27777777777777" y="345" width="16" height="8" class="unified"/>
  <rect x="170.33333333333334" y="345" width="16" height="8" class="unified"/>
  <rect x="188.3888888888889" y="345" width="16" height="8" class="unified"/>
  <rect x="206.44444444444446" y="345" width="16" height="8" class="unified"/>
  <rect x="224.5" y="345" width="16" height="8" class="unified"/>
  <rect x="242.55555555555557" y="345" width="16" height="8" class="unified"/>
  <rect x="260.61111111111114" y="345" width="16" height="8" class="unified"/>
  <rect x="278.6666666666667" y="345" width="16" height="8" class="unified"/>
  <rect x="296.72222222222223" y="345" width="16" height="8" class="unified"/>
  <rect x="314.7777777777778" y="345" width="16" height="8" class="fragmented"/>
  <rect x="332.83333333333337" y="345" width="16" height="8" class="unified"/>
  <rect x="350.8888888888889" y="345" width="16" height="8" class="partial"/>
  <rect x="368.94444444444446" y="345" width="16" height="8" class="unified"/>
  <rect x="387.0" y="345" width="16" height="8" class="unified"/>
  <rect x="405.0555555555556" y="345" width="16" height="8" class="unified"/>
  <rect x="423.11111111111114" y="345" width="16" height="8" class="unified"/>
  <rect x="441.1666666666667" y="345" width="16" height="8" class="unified"/>
  <rect x="459.2222222222223" y="345" width="16" height="8" class="partial"/>
  <rect x="477.2777777777778" y="345" width="16" height="8" class="unified"/>
  <rect x="495.33333333333337" y="345" width="16" height="8" class="unified"/>
  <rect x="513.3888888888889" y="345" width="16" height="8" class="fragmented"/>
  <rect x="531.4444444444445" y="345" width="16" height="8" class="unified"/>
  <rect x="549.5" y="345" width="16" height="8" class="unified"/>
  <rect x="567.5555555555557" y="345" width="16" height="8" class="unified"/>
  <rect x="585.6111111111112" y="345" width="16" height="8" class="unified"/>
  <rect x="603.6666666666667" y="345" width="16" height="8" class="unified"/>
  <rect x="621.7222222222223" y="345" width="16" height="8" class="fragmented"/>
  <rect x="639.7777777777778" y="345" width="16" height="8" class="unified"/>
  <rect x="657.8333333333334" y="345" width="16" height="8" class="fragmented"/>
  <rect x="675.8888888888889" y="345" width="16" height="8" class="unified"/>
  <rect x="693.9444444444445" y="345" width="16" height="8" class="fragmented"/>
  <rect x="712.0" y="345" width="16" height="8" class="unified"/>
  
  <!-- X-axis labels -->
  <text x="70.0" y="365" class="label" text-anchor="middle">22-12</text>
  <text x="106.11111111111111" y="365" class="label" text-anchor="middle">23-02</text>
  <text x="142.22222222222223" y="365" class="label" text-anchor="middle">23-04</text>
  <text x="178.33333333333334" y="365" class="label" text-anchor="middle">23-06</text>
  <text x="214.44444444444446" y="365" class="label" text-anchor="middle">23-08</text>
  <text x="250.55555555555557" y="365" class="label" text-anchor="middle">23-10</text>
  <text x="286.6666666666667" y="365" class="label" text-anchor="middle">23-12</text>
  <text x="322.7777777777778" y="365" class="label" text-anchor="middle">24-02</text>
  <text x="358.8888888888889" y="365" class="label" text-anchor="middle">24-04</text>
  <text x="395.0" y="365" class="label" text-anchor="middle">24-06</text>
  <text x="431.11111111111114" y="365" class="label" text-anchor="middle">24-08</text>
  <text x="467.2222222222223" y="365" class="label" text-anchor="middle">24-10</text>
  <text x="503.33333333333337" y="365" class="label" text-anchor="middle">24-12</text>
  <text x="539.4444444444445" y="365" class="label" text-anchor="middle">25-02</text>
  <text x="575.5555555555557" y="365" class="label" text-anchor="middle">25-04</text>
  <text x="611.6666666666667" y="365" class="label" text-anchor="middle">25-06</text>
  <text x="647.7777777777778" y="365" class="label" text-anchor="middle">25-08</text>
  <text x="683.8888888888889" y="365" class="label" text-anchor="middle">25-10</text>
  <text x="720.0" y="365" class="label" text-anchor="middle">25-12</text>
  
  <!-- Y-axis labels -->
  <text x="60" y="344" class="label" text-anchor="end">0.00</text>
  <text x="60" y="271.5" class="label" text-anchor="end">0.25</text>
  <text x="60" y="199.0" class="label" text-anchor="end">0.50</text>
  <text x="60" y="126.5" class="label" text-anchor="end">0.75</text>
  <text x="60" y="54.0" class="label" text-anchor="end">1.00</text>
  
  <!-- Legend -->
  <rect x="540" y="50" width="12" height="12" class="presence-dot"/>
  <text x="555" y="60" class="label">Presence</text>
  <rect x="630" y="50" width="12" height="12" class="frag-dot"/>
  <text x="645" y="60" class="label">Fragmentation</text>
</svg>
